<mxfile host="app.diagrams.net" agent="Mozilla/5.0 (Macintosh; Intel Mac OS X 10_15_7) AppleWebKit/537.36 (KHTML, like Gecko) Chrome/128.0.0.0 Safari/537.36" version="24.7.12">
  <diagram id="C5RBs43oDa-KdzZeNtuy" name="Page-1">
    <mxGraphModel dx="1420" dy="-26" grid="1" gridSize="10" guides="1" tooltips="1" connect="1" arrows="1" fold="1" page="1" pageScale="1" pageWidth="1169" pageHeight="827" math="0" shadow="0">
      <root>
        <mxCell id="WIyWlLk6GJQsqaUBKTNV-0" />
        <mxCell id="WIyWlLk6GJQsqaUBKTNV-1" parent="WIyWlLk6GJQsqaUBKTNV-0" />
        <mxCell id="SRxlYoo3FdKlpQXrsNi6-0" value="" style="group" vertex="1" connectable="0" parent="WIyWlLk6GJQsqaUBKTNV-1">
          <mxGeometry x="20" y="860" width="50" height="300" as="geometry" />
        </mxCell>
        <mxCell id="o1A4D6gQH1Vv4SaWHEnf-0" value="" style="rounded=0;whiteSpace=wrap;html=1;fillColor=#602826;strokeColor=none;" parent="SRxlYoo3FdKlpQXrsNi6-0" vertex="1">
          <mxGeometry width="50" height="50" as="geometry" />
        </mxCell>
        <mxCell id="o1A4D6gQH1Vv4SaWHEnf-1" value="" style="rounded=0;whiteSpace=wrap;html=1;fillColor=#903C3A;strokeColor=none;" parent="SRxlYoo3FdKlpQXrsNi6-0" vertex="1">
          <mxGeometry y="50" width="50" height="50" as="geometry" />
        </mxCell>
        <mxCell id="o1A4D6gQH1Vv4SaWHEnf-2" value="" style="rounded=0;whiteSpace=wrap;html=1;fillColor=#C0504D;strokeColor=none;" parent="SRxlYoo3FdKlpQXrsNi6-0" vertex="1">
          <mxGeometry y="100" width="50" height="50" as="geometry" />
        </mxCell>
        <mxCell id="o1A4D6gQH1Vv4SaWHEnf-3" value="" style="rounded=0;whiteSpace=wrap;html=1;fillColor=#DD8482;strokeColor=none;" parent="SRxlYoo3FdKlpQXrsNi6-0" vertex="1">
          <mxGeometry y="150" width="50" height="50" as="geometry" />
        </mxCell>
        <mxCell id="o1A4D6gQH1Vv4SaWHEnf-4" value="" style="rounded=0;whiteSpace=wrap;html=1;fillColor=#EC9C9B;strokeColor=none;" parent="SRxlYoo3FdKlpQXrsNi6-0" vertex="1">
          <mxGeometry y="200" width="50" height="50" as="geometry" />
        </mxCell>
        <mxCell id="o1A4D6gQH1Vv4SaWHEnf-5" value="" style="rounded=0;whiteSpace=wrap;html=1;fillColor=#F4B9B7;strokeColor=none;" parent="SRxlYoo3FdKlpQXrsNi6-0" vertex="1">
          <mxGeometry y="250" width="50" height="50" as="geometry" />
        </mxCell>
        <mxCell id="SRxlYoo3FdKlpQXrsNi6-5" value="&lt;li style=&quot;font-size: 20px;&quot;&gt;&lt;font style=&quot;font-size: 20px;&quot;&gt;&lt;strong&gt;Darker 50%&lt;/strong&gt;: &lt;code&gt;#602826&lt;/code&gt;&lt;/font&gt;&lt;/li&gt;&lt;li style=&quot;font-size: 20px;&quot;&gt;&lt;font style=&quot;font-size: 20px;&quot;&gt;&lt;strong&gt;Darker 25%&lt;/strong&gt;: &lt;code&gt;#903C3A&lt;/code&gt;&lt;/font&gt;&lt;/li&gt;&lt;li style=&quot;font-size: 20px;&quot;&gt;&lt;font style=&quot;font-size: 20px;&quot;&gt;&lt;strong&gt;基准色&lt;/strong&gt;: &lt;code&gt;#C0504D&lt;/code&gt;&lt;/font&gt;&lt;/li&gt;&lt;li style=&quot;font-size: 20px;&quot;&gt;&lt;font style=&quot;font-size: 20px;&quot;&gt;&lt;strong&gt;Lighter 40%&lt;/strong&gt;: &lt;code&gt;#DD8482&lt;/code&gt;&lt;/font&gt;&lt;/li&gt;&lt;li style=&quot;font-size: 20px;&quot;&gt;&lt;font style=&quot;font-size: 20px;&quot;&gt;&lt;strong&gt;Lighter 60%&lt;/strong&gt;: &lt;code&gt;#EC9C9B&lt;/code&gt;&lt;/font&gt;&lt;/li&gt;&lt;li style=&quot;font-size: 20px;&quot;&gt;&lt;font style=&quot;font-size: 20px;&quot;&gt;&lt;strong&gt;Lighter 80%&lt;/strong&gt;: &lt;code&gt;#F4B9B7&lt;/code&gt;&lt;/font&gt;&lt;/li&gt;" style="text;whiteSpace=wrap;html=1;" vertex="1" parent="WIyWlLk6GJQsqaUBKTNV-1">
          <mxGeometry x="80" y="850" width="240" height="110" as="geometry" />
        </mxCell>
        <mxCell id="SRxlYoo3FdKlpQXrsNi6-7" value="" style="edgeStyle=orthogonalEdgeStyle;rounded=0;html=1;jettySize=auto;orthogonalLoop=1;fontSize=20;endArrow=classic;endFill=1;endSize=10;strokeWidth=1;shadow=0;labelBackgroundColor=none;entryX=0;entryY=0.5;entryDx=0;entryDy=0;strokeColor=#903C3A;fontFamily=Arial;fontSource=https%3A%2F%2Ffonts.googleapis.com%2Fcss%3Ffamily%3DArial;exitX=1;exitY=0.5;exitDx=0;exitDy=0;" edge="1" parent="WIyWlLk6GJQsqaUBKTNV-1" source="zRnvxChmmkFEFyJADCu1-24" target="zRnvxChmmkFEFyJADCu1-26">
          <mxGeometry y="10" relative="1" as="geometry">
            <mxPoint as="offset" />
            <mxPoint x="1210" y="1348" as="sourcePoint" />
            <mxPoint x="1210" y="1385" as="targetPoint" />
            <Array as="points" />
          </mxGeometry>
        </mxCell>
        <mxCell id="SRxlYoo3FdKlpQXrsNi6-14" value="" style="edgeStyle=orthogonalEdgeStyle;rounded=0;html=1;jettySize=auto;orthogonalLoop=1;fontSize=20;endArrow=classic;endFill=1;endSize=10;strokeWidth=1;shadow=0;labelBackgroundColor=none;entryX=0.5;entryY=0;entryDx=0;entryDy=0;strokeColor=#903C3A;fontFamily=Arial;fontSource=https%3A%2F%2Ffonts.googleapis.com%2Fcss%3Ffamily%3DArial;exitX=0.5;exitY=1;exitDx=0;exitDy=0;" edge="1" parent="WIyWlLk6GJQsqaUBKTNV-1">
          <mxGeometry y="10" relative="1" as="geometry">
            <mxPoint as="offset" />
            <mxPoint x="1210" y="1348" as="sourcePoint" />
            <mxPoint x="1210" y="1385" as="targetPoint" />
            <Array as="points" />
          </mxGeometry>
        </mxCell>
        <mxCell id="zRnvxChmmkFEFyJADCu1-0" value="new" parent="WIyWlLk6GJQsqaUBKTNV-0" />
        <mxCell id="zRnvxChmmkFEFyJADCu1-2" value="" style="rounded=1;whiteSpace=wrap;html=1;fillStyle=auto;fillColor=#F4B9B7;gradientColor=#DD8482;gradientDirection=south;dashed=1;strokeColor=none;shadow=1;arcSize=4;fontFamily=Arial;fontSource=https%3A%2F%2Ffonts.googleapis.com%2Fcss%3Ffamily%3DArial;aspect=fixed;" parent="zRnvxChmmkFEFyJADCu1-0" vertex="1">
          <mxGeometry x="2440" y="1080" width="670" height="691.26" as="geometry" />
        </mxCell>
        <mxCell id="zRnvxChmmkFEFyJADCu1-22" value="&lt;div&gt;&lt;br&gt;&lt;/div&gt;&lt;div&gt;&lt;div&gt;&lt;br&gt;&lt;/div&gt;&lt;div&gt;&lt;br&gt;&lt;/div&gt;&lt;div&gt;&lt;br&gt;&lt;/div&gt;&lt;div&gt;&lt;br&gt;&lt;/div&gt;&lt;div&gt;&lt;br&gt;&lt;/div&gt;&lt;div&gt;&lt;br&gt;&lt;/div&gt;&lt;div&gt;&lt;br&gt;&lt;/div&gt;&lt;div&gt;&lt;br&gt;&lt;/div&gt;&lt;div&gt;&lt;br&gt;&lt;/div&gt;&lt;br&gt;&lt;/div&gt;" style="rounded=0;whiteSpace=wrap;html=1;fillStyle=solid;fillColor=#FFFFFF;shadow=1;strokeColor=#903C3A;fontFamily=Arial;fontSource=https%3A%2F%2Ffonts.googleapis.com%2Fcss%3Ffamily%3DArial;" parent="zRnvxChmmkFEFyJADCu1-0" vertex="1">
          <mxGeometry x="1075" y="1180" width="500" height="285" as="geometry" />
        </mxCell>
        <mxCell id="zRnvxChmmkFEFyJADCu1-98" value="" style="rounded=1;whiteSpace=wrap;html=1;fillStyle=auto;fillColor=#DD8482;gradientColor=none;gradientDirection=south;dashed=1;strokeColor=none;shadow=1;arcSize=4;fontFamily=Arial;fontSource=https%3A%2F%2Ffonts.googleapis.com%2Fcss%3Ffamily%3DArial;" parent="zRnvxChmmkFEFyJADCu1-0" vertex="1">
          <mxGeometry x="680" y="1389" width="340" height="220" as="geometry" />
        </mxCell>
        <mxCell id="zRnvxChmmkFEFyJADCu1-97" value="" style="rounded=1;whiteSpace=wrap;html=1;fillStyle=auto;fillColor=#F4B9B7;gradientColor=#DD8482;gradientDirection=south;dashed=1;strokeColor=none;shadow=1;arcSize=4;fontFamily=Arial;fontSource=https%3A%2F%2Ffonts.googleapis.com%2Fcss%3Ffamily%3DArial;" parent="zRnvxChmmkFEFyJADCu1-0" vertex="1">
          <mxGeometry x="682" y="1152" width="340" height="220" as="geometry" />
        </mxCell>
        <mxCell id="zRnvxChmmkFEFyJADCu1-9" value="&lt;div&gt;&lt;br&gt;&lt;/div&gt;&lt;div&gt;&lt;div&gt;&lt;br&gt;&lt;/div&gt;&lt;div&gt;&lt;br&gt;&lt;/div&gt;&lt;div&gt;&lt;br&gt;&lt;/div&gt;&lt;div&gt;&lt;br&gt;&lt;/div&gt;&lt;div&gt;&lt;br&gt;&lt;/div&gt;&lt;div&gt;&lt;br&gt;&lt;/div&gt;&lt;div&gt;&lt;br&gt;&lt;/div&gt;&lt;div&gt;&lt;br&gt;&lt;/div&gt;&lt;div&gt;&lt;br&gt;&lt;/div&gt;&lt;br&gt;&lt;/div&gt;" style="rounded=0;whiteSpace=wrap;html=1;fillStyle=solid;fillColor=#FFFFFF;shadow=1;strokeColor=#903C3A;fontFamily=Arial;fontSource=https%3A%2F%2Ffonts.googleapis.com%2Fcss%3Ffamily%3DArial;" parent="zRnvxChmmkFEFyJADCu1-0" vertex="1">
          <mxGeometry x="692" y="1184.25" width="316" height="178.5" as="geometry" />
        </mxCell>
        <mxCell id="zRnvxChmmkFEFyJADCu1-10" value="&lt;div style=&quot;forced-color-adjust: none; font-size: 12px; font-style: normal; font-variant-ligatures: normal; font-variant-caps: normal; font-weight: 400; letter-spacing: normal; orphans: 2; text-align: center; text-indent: 0px; text-transform: none; widows: 2; word-spacing: 0px; -webkit-text-stroke-width: 0px; white-space: normal; text-decoration-thickness: initial; text-decoration-style: initial; text-decoration-color: initial;&quot;&gt;&lt;font color=&quot;#ffffff&quot; style=&quot;&quot;&gt;&lt;b style=&quot;forced-color-adjust: none;&quot;&gt;WP1.&amp;nbsp;&lt;/b&gt;&lt;/font&gt;&lt;b style=&quot;color: rgb(255, 255, 255);&quot;&gt;Queue Estimation and Arrival Predition&amp;nbsp;&lt;/b&gt;&lt;/div&gt;&lt;div style=&quot;forced-color-adjust: none; font-size: 12px; font-style: normal; font-variant-ligatures: normal; font-variant-caps: normal; font-weight: 400; letter-spacing: normal; orphans: 2; text-align: center; text-indent: 0px; text-transform: none; widows: 2; word-spacing: 0px; -webkit-text-stroke-width: 0px; white-space: normal; text-decoration-thickness: initial; text-decoration-style: initial; text-decoration-color: initial;&quot;&gt;&lt;b style=&quot;&quot;&gt;&lt;font color=&quot;#ffffff&quot; style=&quot;&quot;&gt;of AMOD vehicles&lt;/font&gt;&lt;/b&gt;&lt;/div&gt;" style="rounded=0;whiteSpace=wrap;html=1;align=center;verticalAlign=middle;fillColor=#903C3A;strokeColor=#903C3A;fontFamily=Arial;fontSource=https%3A%2F%2Ffonts.googleapis.com%2Fcss%3Ffamily%3DArial;" parent="zRnvxChmmkFEFyJADCu1-0" vertex="1">
          <mxGeometry x="692" y="1164.25" width="316" height="44.75" as="geometry" />
        </mxCell>
        <mxCell id="zRnvxChmmkFEFyJADCu1-14" value="&lt;span style=&quot;font-weight: 400;&quot;&gt;WP1.1&amp;nbsp;&lt;/span&gt;&lt;div&gt;&lt;span style=&quot;font-weight: 400;&quot;&gt;Queue estimation at intersections&lt;/span&gt;&lt;/div&gt;" style="rounded=1;whiteSpace=wrap;html=1;arcSize=17;shadow=1;fontStyle=1;gradientColor=#F4B9B7;gradientDirection=south;strokeColor=#903C3A;fontColor=#602826;fontFamily=Arial;fontSource=https%3A%2F%2Ffonts.googleapis.com%2Fcss%3Ffamily%3DArial;" parent="zRnvxChmmkFEFyJADCu1-0" vertex="1">
          <mxGeometry x="706" y="1222" width="120" height="50" as="geometry" />
        </mxCell>
        <mxCell id="zRnvxChmmkFEFyJADCu1-15" value="&lt;span style=&quot;font-weight: 400;&quot;&gt;WP1.2&amp;nbsp;&amp;nbsp;&lt;/span&gt;&lt;div&gt;&lt;span style=&quot;font-weight: 400;&quot;&gt;AMOD operation and dynamics&lt;/span&gt;&lt;/div&gt;" style="text;html=1;align=center;verticalAlign=middle;whiteSpace=wrap;rounded=1;strokeColor=default;fillColor=default;shadow=1;fontStyle=1;gradientColor=#F4B9B7;gradientDirection=south;arcSize=20;fontColor=#602826;fontFamily=Arial;fontSource=https%3A%2F%2Ffonts.googleapis.com%2Fcss%3Ffamily%3DArial;" parent="zRnvxChmmkFEFyJADCu1-0" vertex="1">
          <mxGeometry x="706" y="1295" width="120" height="50" as="geometry" />
        </mxCell>
        <mxCell id="zRnvxChmmkFEFyJADCu1-16" value="&lt;b&gt;WP1.3&amp;nbsp;&lt;/b&gt;&lt;div&gt;&lt;b&gt;Arrival prediction of AMOD vehicles&lt;/b&gt;&lt;/div&gt;" style="rounded=1;whiteSpace=wrap;html=1;arcSize=19;shadow=1;fontStyle=0;gradientColor=#F4B9B7;gradientDirection=south;fillColor=#FFFFFF;strokeColor=default;fontColor=#602826;fontFamily=Arial;fontSource=https%3A%2F%2Ffonts.googleapis.com%2Fcss%3Ffamily%3DArial;" parent="zRnvxChmmkFEFyJADCu1-0" vertex="1">
          <mxGeometry x="869" y="1222" width="120" height="50" as="geometry" />
        </mxCell>
        <mxCell id="zRnvxChmmkFEFyJADCu1-18" value="" style="edgeStyle=orthogonalEdgeStyle;rounded=0;html=1;jettySize=auto;orthogonalLoop=1;fontSize=11;endArrow=block;endFill=0;endSize=6;strokeWidth=1;shadow=0;labelBackgroundColor=none;exitX=1;exitY=0.5;exitDx=0;exitDy=0;entryX=0;entryY=0.5;entryDx=0;entryDy=0;strokeColor=#903C3A;fontFamily=Arial;fontSource=https%3A%2F%2Ffonts.googleapis.com%2Fcss%3Ffamily%3DArial;" parent="zRnvxChmmkFEFyJADCu1-0" source="zRnvxChmmkFEFyJADCu1-14" target="zRnvxChmmkFEFyJADCu1-16" edge="1">
          <mxGeometry y="10" relative="1" as="geometry">
            <mxPoint as="offset" />
            <mxPoint x="1045" y="855" as="sourcePoint" />
            <mxPoint x="1089" y="855" as="targetPoint" />
          </mxGeometry>
        </mxCell>
        <mxCell id="zRnvxChmmkFEFyJADCu1-19" value="&lt;font color=&quot;#ffffff&quot;&gt;Intersection&lt;/font&gt;&lt;div&gt;&lt;font color=&quot;#ffffff&quot;&gt;signal&lt;/font&gt;&lt;/div&gt;&lt;div&gt;&lt;font color=&quot;#ffffff&quot;&gt;information&lt;/font&gt;&lt;/div&gt;" style="rounded=1;whiteSpace=wrap;html=1;fillColor=#DD8482;strokeColor=none;shadow=1;fontFamily=Arial;fontSource=https%3A%2F%2Ffonts.googleapis.com%2Fcss%3Ffamily%3DArial;" parent="zRnvxChmmkFEFyJADCu1-0" vertex="1">
          <mxGeometry x="869" y="1295" width="120" height="50" as="geometry" />
        </mxCell>
        <mxCell id="zRnvxChmmkFEFyJADCu1-20" value="" style="edgeStyle=orthogonalEdgeStyle;rounded=0;html=1;jettySize=auto;orthogonalLoop=1;fontSize=11;endArrow=block;endFill=0;endSize=6;strokeWidth=1;shadow=0;labelBackgroundColor=none;exitX=1;exitY=0.5;exitDx=0;exitDy=0;entryX=0;entryY=0.5;entryDx=0;entryDy=0;strokeColor=#903C3A;fontFamily=Arial;fontSource=https%3A%2F%2Ffonts.googleapis.com%2Fcss%3Ffamily%3DArial;" parent="zRnvxChmmkFEFyJADCu1-0" source="zRnvxChmmkFEFyJADCu1-15" target="zRnvxChmmkFEFyJADCu1-16" edge="1">
          <mxGeometry y="10" relative="1" as="geometry">
            <mxPoint as="offset" />
            <mxPoint x="832" y="1257" as="sourcePoint" />
            <mxPoint x="882" y="1257" as="targetPoint" />
          </mxGeometry>
        </mxCell>
        <mxCell id="zRnvxChmmkFEFyJADCu1-21" value="" style="edgeStyle=orthogonalEdgeStyle;rounded=0;html=1;jettySize=auto;orthogonalLoop=1;fontSize=11;endArrow=block;endFill=0;endSize=6;strokeWidth=1;shadow=0;labelBackgroundColor=none;exitX=0.5;exitY=0;exitDx=0;exitDy=0;strokeColor=#903C3A;fontFamily=Arial;fontSource=https%3A%2F%2Ffonts.googleapis.com%2Fcss%3Ffamily%3DArial;" parent="zRnvxChmmkFEFyJADCu1-0" source="zRnvxChmmkFEFyJADCu1-19" edge="1">
          <mxGeometry y="10" relative="1" as="geometry">
            <mxPoint as="offset" />
            <mxPoint x="832" y="1257" as="sourcePoint" />
            <mxPoint x="932" y="1275" as="targetPoint" />
          </mxGeometry>
        </mxCell>
        <mxCell id="zRnvxChmmkFEFyJADCu1-23" value="&lt;div style=&quot;forced-color-adjust: none; font-style: normal; font-variant-ligatures: normal; font-variant-caps: normal; font-weight: 400; letter-spacing: normal; orphans: 2; text-align: center; text-indent: 0px; text-transform: none; widows: 2; word-spacing: 0px; -webkit-text-stroke-width: 0px; white-space: normal; text-decoration-thickness: initial; text-decoration-style: initial; text-decoration-color: initial; font-size: 20px;&quot;&gt;&lt;font style=&quot;font-size: 20px;&quot; color=&quot;#ffffff&quot;&gt;&lt;font style=&quot;font-size: 20px;&quot;&gt;&lt;b style=&quot;forced-color-adjust: none;&quot;&gt;WP2.&amp;nbsp;&lt;/b&gt;&lt;/font&gt;&lt;b style=&quot;&quot;&gt;Fairness-aware adaptive signal algorithm&lt;/b&gt;&lt;/font&gt;&lt;/div&gt;&lt;div style=&quot;font-size: 20px;&quot;&gt;&lt;b&gt;&lt;font style=&quot;font-size: 20px;&quot; color=&quot;#ffffff&quot;&gt;under frequent arrivals of AMOD vehicles&lt;/font&gt;&lt;/b&gt;&lt;/div&gt;" style="rounded=0;whiteSpace=wrap;html=1;align=center;verticalAlign=middle;fillColor=#903C3A;strokeColor=#903C3A;fontFamily=Arial;fontSource=https%3A%2F%2Ffonts.googleapis.com%2Fcss%3Ffamily%3DArial;aspect=fixed;" parent="zRnvxChmmkFEFyJADCu1-0" vertex="1">
          <mxGeometry x="1075" y="1180" width="500" height="69.15" as="geometry" />
        </mxCell>
        <mxCell id="zRnvxChmmkFEFyJADCu1-24" value="&lt;span style=&quot;font-weight: 400; font-size: 20px;&quot;&gt;&lt;font data-font-src=&quot;https://fonts.googleapis.com/css?family=Arial&quot; style=&quot;font-size: 20px;&quot;&gt;WP2.1&amp;nbsp;&lt;/font&gt;&lt;/span&gt;&lt;div style=&quot;font-size: 20px;&quot;&gt;&lt;span style=&quot;font-weight: 400; font-size: 20px;&quot;&gt;&lt;font data-font-src=&quot;https://fonts.googleapis.com/css?family=Arial&quot; style=&quot;font-size: 20px;&quot;&gt;Fairness expression&lt;/font&gt;&lt;/span&gt;&lt;/div&gt;" style="rounded=1;whiteSpace=wrap;html=1;arcSize=18;shadow=1;fontStyle=1;gradientColor=#F4B9B7;gradientDirection=south;strokeColor=default;fontColor=#602826;fontFamily=Arial;fontSource=https%3A%2F%2Ffonts.googleapis.com%2Fcss%3Ffamily%3DArial;fontSize=20;" parent="zRnvxChmmkFEFyJADCu1-0" vertex="1">
          <mxGeometry x="1100" y="1260" width="200" height="78" as="geometry" />
        </mxCell>
        <mxCell id="zRnvxChmmkFEFyJADCu1-25" value="WP2.2&amp;nbsp;&amp;nbsp;&lt;div style=&quot;font-size: 20px;&quot;&gt;Adaptive signal algorithm design&lt;/div&gt;" style="text;html=1;align=center;verticalAlign=middle;whiteSpace=wrap;rounded=1;strokeColor=default;fillColor=default;shadow=1;fontStyle=1;gradientColor=#F4B9B7;gradientDirection=south;fontColor=#602826;fontFamily=Arial;fontSource=https%3A%2F%2Ffonts.googleapis.com%2Fcss%3Ffamily%3DArial;fontSize=20;" parent="zRnvxChmmkFEFyJADCu1-0" vertex="1">
          <mxGeometry x="1100" y="1375" width="200" height="78" as="geometry" />
        </mxCell>
        <mxCell id="zRnvxChmmkFEFyJADCu1-26" value="&lt;span style=&quot;font-weight: 400; font-size: 20px;&quot;&gt;WP2.3&amp;nbsp;&lt;/span&gt;&lt;div style=&quot;font-size: 20px;&quot;&gt;&lt;span style=&quot;font-weight: 400; font-size: 20px;&quot;&gt;Trade-off analysis on multiple objectives&lt;/span&gt;&lt;/div&gt;" style="rounded=1;whiteSpace=wrap;html=1;arcSize=13;shadow=1;fontStyle=1;gradientColor=#F4B9B7;gradientDirection=south;fillColor=#FFFFFF;strokeColor=default;fontColor=#602826;fontFamily=Arial;fontSource=https%3A%2F%2Ffonts.googleapis.com%2Fcss%3Ffamily%3DArial;fontSize=20;" parent="zRnvxChmmkFEFyJADCu1-0" vertex="1">
          <mxGeometry x="1344" y="1260" width="200" height="78" as="geometry" />
        </mxCell>
        <mxCell id="zRnvxChmmkFEFyJADCu1-44" value="&lt;b style=&quot;font-size: 20px;&quot;&gt;Isolated Intersections&lt;/b&gt;" style="text;html=1;align=center;verticalAlign=middle;whiteSpace=wrap;rounded=0;fontColor=#903C3A;fontFamily=Arial;fontSource=https%3A%2F%2Ffonts.googleapis.com%2Fcss%3Ffamily%3DArial;fontSize=20;" parent="zRnvxChmmkFEFyJADCu1-0" vertex="1">
          <mxGeometry x="1629" y="1220" width="60" height="30" as="geometry" />
        </mxCell>
        <mxCell id="zRnvxChmmkFEFyJADCu1-45" value="&lt;b style=&quot;font-size: 20px;&quot;&gt;Corridors&lt;/b&gt;" style="text;html=1;align=center;verticalAlign=middle;whiteSpace=wrap;rounded=0;fontColor=#903C3A;fontFamily=Arial;fontSource=https%3A%2F%2Ffonts.googleapis.com%2Fcss%3Ffamily%3DArial;fontSize=20;" parent="zRnvxChmmkFEFyJADCu1-0" vertex="1">
          <mxGeometry x="1619" y="1690" width="80" height="30" as="geometry" />
        </mxCell>
        <mxCell id="zRnvxChmmkFEFyJADCu1-57" value="&lt;b style=&quot;font-size: 20px;&quot;&gt;&lt;font color=&quot;#602826&quot; style=&quot;font-size: 20px;&quot;&gt;Signal Coordination&lt;/font&gt;&lt;/b&gt;" style="html=1;shadow=1;dashed=0;align=center;verticalAlign=middle;shape=mxgraph.arrows2.stripedArrow;dy=0.57;dx=33.74;notch=25;rotation=90;strokeColor=#903C3A;fontFamily=Arial;fontSource=https%3A%2F%2Ffonts.googleapis.com%2Fcss%3Ffamily%3DArial;fontSize=20;" parent="zRnvxChmmkFEFyJADCu1-0" vertex="1">
          <mxGeometry x="1474.225" y="1451.28" width="369.55" height="60" as="geometry" />
        </mxCell>
        <mxCell id="zRnvxChmmkFEFyJADCu1-66" value="&lt;div&gt;&lt;br&gt;&lt;/div&gt;&lt;div&gt;&lt;div&gt;&lt;br&gt;&lt;/div&gt;&lt;div&gt;&lt;br&gt;&lt;/div&gt;&lt;div&gt;&lt;br&gt;&lt;/div&gt;&lt;div&gt;&lt;br&gt;&lt;/div&gt;&lt;div&gt;&lt;br&gt;&lt;/div&gt;&lt;div&gt;&lt;br&gt;&lt;/div&gt;&lt;div&gt;&lt;br&gt;&lt;/div&gt;&lt;div&gt;&lt;br&gt;&lt;/div&gt;&lt;div&gt;&lt;br&gt;&lt;/div&gt;&lt;br&gt;&lt;/div&gt;" style="rounded=0;whiteSpace=wrap;html=1;fillStyle=solid;fillColor=#FFFFFF;shadow=1;strokeColor=#903C3A;fontFamily=Arial;fontSource=https%3A%2F%2Ffonts.googleapis.com%2Fcss%3Ffamily%3DArial;" parent="zRnvxChmmkFEFyJADCu1-0" vertex="1">
          <mxGeometry x="1139" y="1600" width="316" height="178.5" as="geometry" />
        </mxCell>
        <mxCell id="zRnvxChmmkFEFyJADCu1-67" value="&lt;div style=&quot;forced-color-adjust: none; font-size: 12px; font-style: normal; font-variant-ligatures: normal; font-variant-caps: normal; letter-spacing: normal; orphans: 2; text-align: center; text-indent: 0px; text-transform: none; widows: 2; word-spacing: 0px; -webkit-text-stroke-width: 0px; white-space: normal; text-decoration-thickness: initial; text-decoration-style: initial; text-decoration-color: initial;&quot;&gt;&lt;font color=&quot;#ffffff&quot;&gt;&lt;font style=&quot;&quot;&gt;&lt;span style=&quot;forced-color-adjust: none;&quot;&gt;WP3.&amp;nbsp;&lt;/span&gt;&lt;/font&gt;&lt;span style=&quot;font-size: 12.2556px; text-align: start; white-space: pre;&quot;&gt;Coordination of signal plan and AMOD vehicle &lt;/span&gt;&lt;/font&gt;&lt;/div&gt;&lt;div style=&quot;forced-color-adjust: none; font-size: 12px; font-style: normal; font-variant-ligatures: normal; font-variant-caps: normal; letter-spacing: normal; orphans: 2; text-align: center; text-indent: 0px; text-transform: none; widows: 2; word-spacing: 0px; -webkit-text-stroke-width: 0px; white-space: normal; text-decoration-thickness: initial; text-decoration-style: initial; text-decoration-color: initial;&quot;&gt;&lt;font color=&quot;#ffffff&quot;&gt;&lt;span style=&quot;font-size: 12.2556px; text-align: start; white-space: pre;&quot;&gt;approaching speed for bicycle-vehicle &lt;/span&gt;&lt;/font&gt;&lt;span style=&quot;color: rgb(255, 255, 255); font-size: 12.2556px; text-align: start; white-space: pre;&quot;&gt;green wave&lt;/span&gt;&lt;span style=&quot;color: rgb(255, 255, 255); font-size: 12.2556px; text-align: start; white-space: pre;&quot;&gt;s&lt;/span&gt;&lt;/div&gt;" style="rounded=0;whiteSpace=wrap;html=1;align=center;verticalAlign=middle;fillColor=#903C3A;fontStyle=1;strokeColor=#903C3A;fontFamily=Arial;fontSource=https%3A%2F%2Ffonts.googleapis.com%2Fcss%3Ffamily%3DArial;" parent="zRnvxChmmkFEFyJADCu1-0" vertex="1">
          <mxGeometry x="1139" y="1580" width="316" height="44.75" as="geometry" />
        </mxCell>
        <mxCell id="zRnvxChmmkFEFyJADCu1-68" value="&lt;b&gt;&lt;span style=&quot;&quot;&gt;WP3.1&amp;nbsp;&lt;/span&gt;&lt;span style=&quot;background-color: initial;&quot;&gt;Corridor signal optimization model design&lt;/span&gt;&lt;/b&gt;" style="rounded=1;whiteSpace=wrap;html=1;arcSize=13;shadow=1;fontStyle=0;gradientColor=#F4B9B7;gradientDirection=south;strokeColor=default;fontColor=#602826;fontFamily=Arial;fontSource=https%3A%2F%2Ffonts.googleapis.com%2Fcss%3Ffamily%3DArial;" parent="zRnvxChmmkFEFyJADCu1-0" vertex="1">
          <mxGeometry x="1153" y="1638.75" width="120" height="50" as="geometry" />
        </mxCell>
        <mxCell id="zRnvxChmmkFEFyJADCu1-69" value="&lt;span style=&quot;&quot;&gt;&lt;b&gt;WP3.2 AMOD vehicle approaching speed control&amp;nbsp;&amp;nbsp;&lt;/b&gt;&lt;/span&gt;" style="text;html=1;align=center;verticalAlign=middle;whiteSpace=wrap;rounded=1;strokeColor=default;fillColor=default;shadow=1;fontStyle=0;gradientColor=#F4B9B7;gradientDirection=south;fontColor=#602826;fontFamily=Arial;fontSource=https%3A%2F%2Ffonts.googleapis.com%2Fcss%3Ffamily%3DArial;" parent="zRnvxChmmkFEFyJADCu1-0" vertex="1">
          <mxGeometry x="1153" y="1711.75" width="120" height="50" as="geometry" />
        </mxCell>
        <mxCell id="zRnvxChmmkFEFyJADCu1-70" value="&lt;span style=&quot;font-weight: 400;&quot;&gt;WP3.3&amp;nbsp;&lt;/span&gt;&lt;div&gt;&lt;span style=&quot;font-weight: 400;&quot;&gt;Control effect analysis&lt;/span&gt;&lt;/div&gt;" style="rounded=1;whiteSpace=wrap;html=1;arcSize=13;shadow=1;fontStyle=1;gradientColor=#F4B9B7;gradientDirection=south;fillColor=#FFFFFF;strokeColor=default;fontColor=#602826;fontFamily=Arial;fontSource=https%3A%2F%2Ffonts.googleapis.com%2Fcss%3Ffamily%3DArial;" parent="zRnvxChmmkFEFyJADCu1-0" vertex="1">
          <mxGeometry x="1319" y="1638.75" width="120" height="50" as="geometry" />
        </mxCell>
        <mxCell id="zRnvxChmmkFEFyJADCu1-71" value="" style="edgeStyle=orthogonalEdgeStyle;rounded=0;html=1;jettySize=auto;orthogonalLoop=1;fontSize=11;endArrow=block;endFill=0;endSize=8;strokeWidth=1;shadow=0;labelBackgroundColor=none;exitX=1;exitY=0.5;exitDx=0;exitDy=0;entryX=0;entryY=0.5;entryDx=0;entryDy=0;strokeColor=#903C3A;fontFamily=Arial;fontSource=https%3A%2F%2Ffonts.googleapis.com%2Fcss%3Ffamily%3DArial;" parent="zRnvxChmmkFEFyJADCu1-0" source="zRnvxChmmkFEFyJADCu1-68" target="zRnvxChmmkFEFyJADCu1-70" edge="1">
          <mxGeometry y="10" relative="1" as="geometry">
            <mxPoint as="offset" />
            <mxPoint x="1492" y="1271.75" as="sourcePoint" />
            <mxPoint x="1536" y="1271.75" as="targetPoint" />
          </mxGeometry>
        </mxCell>
        <mxCell id="zRnvxChmmkFEFyJADCu1-72" value="" style="edgeStyle=orthogonalEdgeStyle;rounded=0;html=1;jettySize=auto;orthogonalLoop=1;fontSize=11;endArrow=block;endFill=0;endSize=8;strokeWidth=1;shadow=0;labelBackgroundColor=none;exitX=1;exitY=0.5;exitDx=0;exitDy=0;entryX=0;entryY=0.5;entryDx=0;entryDy=0;strokeColor=#903C3A;fontFamily=Arial;fontSource=https%3A%2F%2Ffonts.googleapis.com%2Fcss%3Ffamily%3DArial;" parent="zRnvxChmmkFEFyJADCu1-0" source="zRnvxChmmkFEFyJADCu1-69" target="zRnvxChmmkFEFyJADCu1-70" edge="1">
          <mxGeometry y="10" relative="1" as="geometry">
            <mxPoint as="offset" />
            <mxPoint x="1279" y="1673.75" as="sourcePoint" />
            <mxPoint x="1329" y="1673.75" as="targetPoint" />
          </mxGeometry>
        </mxCell>
        <mxCell id="zRnvxChmmkFEFyJADCu1-76" value="" style="edgeStyle=orthogonalEdgeStyle;rounded=0;html=1;jettySize=auto;orthogonalLoop=1;fontSize=20;endArrow=classic;endFill=1;endSize=10;strokeWidth=1;shadow=0;labelBackgroundColor=none;entryX=0.5;entryY=0;entryDx=0;entryDy=0;strokeColor=#903C3A;fontFamily=Arial;fontSource=https%3A%2F%2Ffonts.googleapis.com%2Fcss%3Ffamily%3DArial;exitX=0.5;exitY=1;exitDx=0;exitDy=0;" parent="zRnvxChmmkFEFyJADCu1-0" source="zRnvxChmmkFEFyJADCu1-24" target="zRnvxChmmkFEFyJADCu1-25" edge="1">
          <mxGeometry y="10" relative="1" as="geometry">
            <mxPoint as="offset" />
            <mxPoint x="1389" y="1390" as="sourcePoint" />
            <mxPoint x="1389.0400000000002" y="1366" as="targetPoint" />
            <Array as="points" />
          </mxGeometry>
        </mxCell>
        <mxCell id="zRnvxChmmkFEFyJADCu1-83" value="&lt;div&gt;&lt;br&gt;&lt;/div&gt;&lt;div&gt;&lt;div&gt;&lt;br&gt;&lt;/div&gt;&lt;div&gt;&lt;br&gt;&lt;/div&gt;&lt;div&gt;&lt;br&gt;&lt;/div&gt;&lt;div&gt;&lt;br&gt;&lt;/div&gt;&lt;div&gt;&lt;br&gt;&lt;/div&gt;&lt;div&gt;&lt;br&gt;&lt;/div&gt;&lt;div&gt;&lt;br&gt;&lt;/div&gt;&lt;div&gt;&lt;br&gt;&lt;/div&gt;&lt;div&gt;&lt;br&gt;&lt;/div&gt;&lt;br&gt;&lt;/div&gt;" style="rounded=0;whiteSpace=wrap;html=1;fillStyle=solid;fillColor=#FFFFFF;shadow=1;strokeColor=#903C3A;fontFamily=Arial;fontSource=https%3A%2F%2Ffonts.googleapis.com%2Fcss%3Ffamily%3DArial;" parent="zRnvxChmmkFEFyJADCu1-0" vertex="1">
          <mxGeometry x="692" y="1419" width="316" height="178.5" as="geometry" />
        </mxCell>
        <mxCell id="zRnvxChmmkFEFyJADCu1-84" value="&lt;div style=&quot;text-align: start; forced-color-adjust: none; font-style: normal; font-variant-ligatures: normal; font-variant-caps: normal; font-weight: 400; letter-spacing: normal; orphans: 2; text-indent: 0px; text-transform: none; widows: 2; word-spacing: 0px; -webkit-text-stroke-width: 0px; text-decoration-thickness: initial; text-decoration-style: initial; text-decoration-color: initial;&quot;&gt;&lt;font color=&quot;#ffffff&quot; style=&quot;&quot;&gt;&lt;font style=&quot;font-size: 12px;&quot;&gt;&lt;b style=&quot;forced-color-adjust: none;&quot;&gt;WP4. &lt;font style=&quot;font-size: 12px;&quot;&gt;&lt;span style=&quot;white-space: pre;&quot;&gt;Simulation assessment of&lt;/span&gt;&lt;/font&gt;&lt;/b&gt;&lt;/font&gt;&lt;/font&gt;&lt;/div&gt;&lt;div style=&quot;text-align: start; forced-color-adjust: none; font-style: normal; font-variant-ligatures: normal; font-variant-caps: normal; font-weight: 400; letter-spacing: normal; orphans: 2; text-indent: 0px; text-transform: none; widows: 2; word-spacing: 0px; -webkit-text-stroke-width: 0px; text-decoration-thickness: initial; text-decoration-style: initial; text-decoration-color: initial;&quot;&gt;&lt;font color=&quot;#ffffff&quot; style=&quot;&quot;&gt;&lt;font style=&quot;font-size: 12px;&quot;&gt;&lt;b style=&quot;forced-color-adjust: none;&quot;&gt;&lt;font style=&quot;font-size: 12px;&quot;&gt;&lt;span style=&quot;white-space: pre;&quot;&gt;     traffic control performance&lt;/span&gt;&lt;/font&gt;&lt;/b&gt;&lt;/font&gt;&lt;/font&gt;&lt;/div&gt;" style="rounded=0;whiteSpace=wrap;html=1;align=center;verticalAlign=middle;fillColor=#903C3A;strokeColor=#903C3A;fontFamily=Arial;fontSource=https%3A%2F%2Ffonts.googleapis.com%2Fcss%3Ffamily%3DArial;" parent="zRnvxChmmkFEFyJADCu1-0" vertex="1">
          <mxGeometry x="692" y="1399" width="316" height="44.75" as="geometry" />
        </mxCell>
        <mxCell id="zRnvxChmmkFEFyJADCu1-85" value="&lt;span&gt;&lt;span style=&quot;&quot;&gt;WP4.1 Simulation scenario setup&lt;/span&gt;&lt;/span&gt;" style="rounded=1;whiteSpace=wrap;html=1;arcSize=13;shadow=1;fontStyle=0;gradientColor=#F4B9B7;gradientDirection=south;strokeColor=default;fontColor=#602826;fontFamily=Arial;fontSource=https%3A%2F%2Ffonts.googleapis.com%2Fcss%3Ffamily%3DArial;" parent="zRnvxChmmkFEFyJADCu1-0" vertex="1">
          <mxGeometry x="706" y="1457.75" width="120" height="50" as="geometry" />
        </mxCell>
        <mxCell id="zRnvxChmmkFEFyJADCu1-86" value="&lt;span style=&quot;&quot;&gt;WP4.3 Simulation and evaluation of the corridor&lt;/span&gt;" style="text;html=1;align=center;verticalAlign=middle;whiteSpace=wrap;rounded=1;strokeColor=default;fillColor=default;shadow=1;fontStyle=0;gradientColor=#F4B9B7;gradientDirection=south;fontColor=#602826;fontFamily=Arial;fontSource=https%3A%2F%2Ffonts.googleapis.com%2Fcss%3Ffamily%3DArial;" parent="zRnvxChmmkFEFyJADCu1-0" vertex="1">
          <mxGeometry x="869" y="1530.75" width="120" height="50" as="geometry" />
        </mxCell>
        <mxCell id="zRnvxChmmkFEFyJADCu1-87" value="&lt;span style=&quot;font-weight: 400;&quot;&gt;WP4.2&amp;nbsp;&lt;/span&gt;&lt;span style=&quot;font-weight: 400; background-color: initial;&quot;&gt;Simulation and evaluation at isolated intersections&lt;/span&gt;" style="rounded=1;whiteSpace=wrap;html=1;arcSize=13;shadow=1;fontStyle=1;gradientColor=#EC9C9B;gradientDirection=south;fillColor=#FFFFFF;strokeColor=default;fontColor=#602826;fontFamily=Arial;fontSource=https%3A%2F%2Ffonts.googleapis.com%2Fcss%3Ffamily%3DArial;" parent="zRnvxChmmkFEFyJADCu1-0" vertex="1">
          <mxGeometry x="869" y="1457.75" width="120" height="50" as="geometry" />
        </mxCell>
        <mxCell id="zRnvxChmmkFEFyJADCu1-88" value="" style="edgeStyle=orthogonalEdgeStyle;rounded=0;html=1;jettySize=auto;orthogonalLoop=1;fontSize=11;endArrow=block;endFill=0;endSize=8;strokeWidth=1;shadow=0;labelBackgroundColor=none;exitX=1;exitY=0.5;exitDx=0;exitDy=0;entryX=0;entryY=0.5;entryDx=0;entryDy=0;strokeColor=#903C3A;fontFamily=Arial;fontSource=https%3A%2F%2Ffonts.googleapis.com%2Fcss%3Ffamily%3DArial;" parent="zRnvxChmmkFEFyJADCu1-0" source="zRnvxChmmkFEFyJADCu1-85" target="zRnvxChmmkFEFyJADCu1-87" edge="1">
          <mxGeometry y="10" relative="1" as="geometry">
            <mxPoint as="offset" />
            <mxPoint x="780" y="1539.0000000000002" as="sourcePoint" />
            <mxPoint x="826" y="1539.0000000000002" as="targetPoint" />
          </mxGeometry>
        </mxCell>
        <mxCell id="zRnvxChmmkFEFyJADCu1-89" value="" style="edgeStyle=orthogonalEdgeStyle;rounded=0;html=1;jettySize=auto;orthogonalLoop=1;fontSize=11;endArrow=block;endFill=0;endSize=8;strokeWidth=1;shadow=0;labelBackgroundColor=none;exitX=0;exitY=0.5;exitDx=0;exitDy=0;entryX=0;entryY=0.5;entryDx=0;entryDy=0;strokeColor=#903C3A;fontFamily=Arial;fontSource=https%3A%2F%2Ffonts.googleapis.com%2Fcss%3Ffamily%3DArial;" parent="zRnvxChmmkFEFyJADCu1-0" source="zRnvxChmmkFEFyJADCu1-86" target="zRnvxChmmkFEFyJADCu1-87" edge="1">
          <mxGeometry y="10" relative="1" as="geometry">
            <mxPoint as="offset" />
            <mxPoint x="832" y="1492.75" as="sourcePoint" />
            <mxPoint x="882" y="1492.75" as="targetPoint" />
          </mxGeometry>
        </mxCell>
        <mxCell id="zRnvxChmmkFEFyJADCu1-94" value="" style="edgeStyle=orthogonalEdgeStyle;rounded=0;html=1;jettySize=auto;orthogonalLoop=1;fontSize=11;endArrow=classic;endFill=1;endSize=6;strokeWidth=1;shadow=0;labelBackgroundColor=none;exitX=0;exitY=0.5;exitDx=0;exitDy=0;entryX=1;entryY=0.5;entryDx=0;entryDy=0;strokeColor=#903C3A;fontFamily=Arial;fontSource=https%3A%2F%2Ffonts.googleapis.com%2Fcss%3Ffamily%3DArial;" parent="zRnvxChmmkFEFyJADCu1-0" source="zRnvxChmmkFEFyJADCu1-69" target="zRnvxChmmkFEFyJADCu1-86" edge="1">
          <mxGeometry y="10" relative="1" as="geometry">
            <mxPoint as="offset" />
            <mxPoint x="1055.97" y="1580.75" as="sourcePoint" />
            <mxPoint x="904.97" y="1724.75" as="targetPoint" />
            <Array as="points">
              <mxPoint x="1032" y="1556" />
              <mxPoint x="1032" y="1556" />
            </Array>
          </mxGeometry>
        </mxCell>
        <mxCell id="zRnvxChmmkFEFyJADCu1-95" value="" style="edgeStyle=orthogonalEdgeStyle;rounded=0;html=1;jettySize=auto;orthogonalLoop=1;fontSize=11;endArrow=classic;endFill=1;endSize=6;strokeWidth=1;shadow=0;labelBackgroundColor=none;exitX=0;exitY=0.5;exitDx=0;exitDy=0;entryX=1;entryY=0.5;entryDx=0;entryDy=0;strokeColor=#903C3A;fontFamily=Arial;fontSource=https%3A%2F%2Ffonts.googleapis.com%2Fcss%3Ffamily%3DArial;" parent="zRnvxChmmkFEFyJADCu1-0" source="zRnvxChmmkFEFyJADCu1-68" target="zRnvxChmmkFEFyJADCu1-86" edge="1">
          <mxGeometry y="10" relative="1" as="geometry">
            <mxPoint as="offset" />
            <mxPoint x="1093" y="1566" as="sourcePoint" />
            <mxPoint x="992" y="1559" as="targetPoint" />
            <Array as="points">
              <mxPoint x="1062" y="1483" />
              <mxPoint x="1062" y="1556" />
            </Array>
          </mxGeometry>
        </mxCell>
        <mxCell id="SRxlYoo3FdKlpQXrsNi6-1" value="" style="group" vertex="1" connectable="0" parent="zRnvxChmmkFEFyJADCu1-0">
          <mxGeometry x="749" y="2050" width="160" height="128" as="geometry" />
        </mxCell>
        <mxCell id="zRnvxChmmkFEFyJADCu1-40" value="" style="shape=offPageConnector;whiteSpace=wrap;html=1;rounded=0;fillColor=#DD8482;strokeColor=none;shadow=1;fontFamily=Arial;fontSource=https%3A%2F%2Ffonts.googleapis.com%2Fcss%3Ffamily%3DArial;aspect=fixed;" parent="SRxlYoo3FdKlpQXrsNi6-1" vertex="1">
          <mxGeometry width="160" height="128" as="geometry" />
        </mxCell>
        <mxCell id="zRnvxChmmkFEFyJADCu1-41" value="To B03:&lt;div style=&quot;font-size: 20px;&quot;&gt;&lt;span style=&quot;font-weight: normal; font-size: 20px;&quot;&gt;AMOD service reliability&lt;/span&gt;&lt;/div&gt;" style="text;html=1;align=center;verticalAlign=middle;whiteSpace=wrap;rounded=0;fontStyle=1;fontColor=#FFFFFF;fontFamily=Arial;fontSource=https%3A%2F%2Ffonts.googleapis.com%2Fcss%3Ffamily%3DArial;fontSize=20;" parent="SRxlYoo3FdKlpQXrsNi6-1" vertex="1">
          <mxGeometry x="5" y="31.5" width="150" height="35.44" as="geometry" />
        </mxCell>
        <mxCell id="SRxlYoo3FdKlpQXrsNi6-2" value="" style="group" vertex="1" connectable="0" parent="zRnvxChmmkFEFyJADCu1-0">
          <mxGeometry x="1159" y="2050" width="160" height="128" as="geometry" />
        </mxCell>
        <mxCell id="zRnvxChmmkFEFyJADCu1-42" value="" style="shape=offPageConnector;whiteSpace=wrap;html=1;rounded=0;fillColor=#DD8482;strokeColor=none;shadow=1;fontFamily=Arial;fontSource=https%3A%2F%2Ffonts.googleapis.com%2Fcss%3Ffamily%3DArial;aspect=fixed;" parent="SRxlYoo3FdKlpQXrsNi6-2" vertex="1">
          <mxGeometry width="160" height="128" as="geometry" />
        </mxCell>
        <mxCell id="zRnvxChmmkFEFyJADCu1-43" value="To C02 &amp;amp; C03:&lt;div style=&quot;font-size: 20px;&quot;&gt;&lt;span style=&quot;font-weight: normal; font-size: 20px;&quot;&gt;Signal optimization models&lt;/span&gt;&lt;/div&gt;" style="text;html=1;align=center;verticalAlign=middle;whiteSpace=wrap;rounded=0;fontStyle=1;fontColor=#FFFFFF;fontFamily=Arial;fontSource=https%3A%2F%2Ffonts.googleapis.com%2Fcss%3Ffamily%3DArial;fontSize=20;" parent="SRxlYoo3FdKlpQXrsNi6-2" vertex="1">
          <mxGeometry x="5" y="36.5" width="150" height="35" as="geometry" />
        </mxCell>
        <mxCell id="SRxlYoo3FdKlpQXrsNi6-3" value="" style="group" vertex="1" connectable="0" parent="zRnvxChmmkFEFyJADCu1-0">
          <mxGeometry x="779" y="990" width="160" height="128" as="geometry" />
        </mxCell>
        <mxCell id="zRnvxChmmkFEFyJADCu1-3" value="" style="shape=offPageConnector;whiteSpace=wrap;html=1;rounded=0;fillColor=#DD8482;strokeColor=none;shadow=1;fontFamily=Arial;fontSource=https%3A%2F%2Ffonts.googleapis.com%2Fcss%3Ffamily%3DArial;aspect=fixed;" parent="SRxlYoo3FdKlpQXrsNi6-3" vertex="1">
          <mxGeometry width="160" height="128" as="geometry" />
        </mxCell>
        <mxCell id="zRnvxChmmkFEFyJADCu1-4" value="From B03:&lt;div style=&quot;font-size: 20px;&quot;&gt;&lt;span style=&quot;font-weight: normal; font-size: 20px;&quot;&gt;AMOD Demand and&amp;nbsp; Operation&lt;/span&gt;&lt;/div&gt;" style="text;html=1;align=center;verticalAlign=middle;whiteSpace=wrap;rounded=0;fontStyle=1;fontColor=#FFFFFF;fontFamily=Arial;fontSource=https%3A%2F%2Ffonts.googleapis.com%2Fcss%3Ffamily%3DArial;fontSize=20;" parent="SRxlYoo3FdKlpQXrsNi6-3" vertex="1">
          <mxGeometry x="5" y="29" width="150" height="33.5" as="geometry" />
        </mxCell>
        <mxCell id="SRxlYoo3FdKlpQXrsNi6-4" value="" style="group" vertex="1" connectable="0" parent="zRnvxChmmkFEFyJADCu1-0">
          <mxGeometry x="1179" y="990" width="160" height="128" as="geometry" />
        </mxCell>
        <mxCell id="zRnvxChmmkFEFyJADCu1-5" value="" style="shape=offPageConnector;whiteSpace=wrap;html=1;rounded=0;fillColor=#DD8482;strokeColor=none;shadow=1;fontFamily=Arial;fontSource=https%3A%2F%2Ffonts.googleapis.com%2Fcss%3Ffamily%3DArial;aspect=fixed;" parent="SRxlYoo3FdKlpQXrsNi6-4" vertex="1">
          <mxGeometry width="160" height="128" as="geometry" />
        </mxCell>
        <mxCell id="zRnvxChmmkFEFyJADCu1-6" value="&lt;font data-font-src=&quot;https://fonts.googleapis.com/css?family=Arial&quot; style=&quot;font-size: 20px;&quot;&gt;From C01:&lt;/font&gt;&lt;div style=&quot;font-size: 20px;&quot;&gt;&lt;span style=&quot;font-weight: normal; font-size: 20px;&quot;&gt;&lt;font data-font-src=&quot;https://fonts.googleapis.com/css?family=Arial&quot; style=&quot;font-size: 20px;&quot;&gt;Fairness&lt;/font&gt;&lt;/span&gt;&lt;/div&gt;&lt;div style=&quot;font-size: 20px;&quot;&gt;&lt;span style=&quot;font-weight: normal; font-size: 20px;&quot;&gt;&lt;font style=&quot;font-size: 20px;&quot;&gt;Matrix&lt;/font&gt;&lt;/span&gt;&lt;/div&gt;" style="text;html=1;align=center;verticalAlign=middle;whiteSpace=wrap;rounded=0;fontStyle=1;fontColor=#FFFFFF;fontFamily=Arial;fontSource=https%3A%2F%2Ffonts.googleapis.com%2Fcss%3Ffamily%3DArial;fontSize=20;" parent="SRxlYoo3FdKlpQXrsNi6-4" vertex="1">
          <mxGeometry x="5" y="32.5" width="150" height="35" as="geometry" />
        </mxCell>
        <mxCell id="SRxlYoo3FdKlpQXrsNi6-8" value="" style="edgeStyle=orthogonalEdgeStyle;rounded=0;orthogonalLoop=1;jettySize=auto;html=1;strokeColor=#602826;endSize=10;" edge="1" parent="zRnvxChmmkFEFyJADCu1-0" source="zRnvxChmmkFEFyJADCu1-24" target="zRnvxChmmkFEFyJADCu1-26">
          <mxGeometry relative="1" as="geometry" />
        </mxCell>
      </root>
    </mxGraphModel>
  </diagram>
</mxfile>
